<svg xmlns="http://www.w3.org/2000/svg" xmlns:xlink="http://www.w3.org/1999/xlink" width="840" height="581.04"><rect width="840" height="581.04" rx="5" ry="5" class="a"/><svg y="0%" x="0%"><circle cx="20" cy="20" r="6" fill="#ff5f58"/><circle cx="40" cy="20" r="6" fill="#ffbd2e"/><circle cx="60" cy="20" r="6" fill="#18c132"/></svg><svg height="521.04" viewBox="0 0 80 52.104" width="800" x="15" xmlns="http://www.w3.org/2000/svg" xmlns:xlink="http://www.w3.org/1999/xlink" y="50"><style>@keyframes k{0%{transform:translateX(0)}.3%{transform:translateX(-160px)}2.6%{transform:translateX(-240px)}4.8%{transform:translateX(-320px)}7%{transform:translateX(-400px)}9.3%{transform:translateX(-480px)}11.6%{transform:translateX(-560px)}13.9%{transform:translateX(-640px)}30.7%{transform:translateX(-720px)}38%{transform:translateX(-800px)}41.8%{transform:translateX(-880px)}46.8%{transform:translateX(-960px)}52.7%{transform:translateX(-1040px)}58.8%{transform:translateX(-1120px)}64.8%{transform:translateX(-1200px)}70.9%{transform:translateX(-1280px)}77%{transform:translateX(-1360px)}83.1%{transform:translateX(-1440px)}88%{transform:translateX(-1520px)}to{transform:translateX(-1600px)}}.a{fill:#282d35}.f,.g,.h,.i{fill:#a8cc8c;white-space:pre}.g,.h,.i{fill:#b9c0cb}.h,.i{fill:#66c2cd}.i{fill:#dbab79}</style><g font-family="Monaco,Consolas,Menlo,'Bitstream Vera Sans Mono','Powerline Symbols',monospace" font-size="1.67"><defs><symbol id="1"><text y="1.67" class="f">guest@basel</text><text x="11.022" y="1.67" class="g">:</text><text x="12.024" y="1.67" class="h">~</text><text x="13.026" y="1.67" class="g">$</text><text x="15.03" y="1.67" class="g">whoami</text></symbol><symbol id="2"><text y="1.67" class="i">Salih</text><text x="6.012" y="1.67" class="i">Camci</text></symbol><symbol id="3"><text y="1.67" class="g">Data</text><text x="5.01" y="1.67" class="g">Science</text><text x="13.026" y="1.67" class="g">·</text><text x="15.03" y="1.67" class="g">Machine</text><text x="23.046" y="1.67" class="g">Learning</text><text x="32.064" y="1.67" class="g">·</text><text x="34.068" y="1.67" class="g">Backend</text><text x="42.084" y="1.67" class="g">Engineering</text></symbol><symbol id="4"><text y="1.67" class="h">role</text><text x="11.022" y="1.67" class="g">Backend</text><text x="19.038" y="1.67" class="g">Engineering</text><text x="31.062" y="1.67" class="g">Intern</text><text x="38.076" y="1.67" class="g">@</text><text x="40.08" y="1.67" class="g">Crytek</text><text x="47.094" y="1.67" class="g">GmbH</text><text x="52.104" y="1.67" class="g">(Go,</text><text x="57.114" y="1.67" class="g">Redis,</text><text x="64.128" y="1.67" class="g">REST)</text></symbol><symbol id="5"><text y="1.67" class="h">next</text><text x="11.022" y="1.67" class="g">MSc</text><text x="15.03" y="1.67" class="g">Data</text><text x="20.04" y="1.67" class="g">Science,</text><text x="29.058" y="1.67" class="g">University</text><text x="40.08" y="1.67" class="g">of</text><text x="43.086" y="1.67" class="g">Basel</text><text x="49.098" y="1.67" class="g">—</text><text x="51.102" y="1.67" class="g">Sep</text><text x="55.11" y="1.67" class="g">2026</text></symbol><symbol id="6"><text y="1.67" class="h">based</text><text x="11.022" y="1.67" class="g">Istanbul</text><text x="20.04" y="1.67" class="g">-&gt;</text><text x="23.046" y="1.67" class="g">Basel,</text><text x="30.06" y="1.67" class="g">Switzerland</text></symbol><symbol id="7"><text y="1.67" class="h">stack</text><text x="11.022" y="1.67" class="g">Python</text><text x="18.036" y="1.67" class="g">·</text><text x="20.04" y="1.67" class="g">Go</text><text x="23.046" y="1.67" class="g">·</text><text x="25.05" y="1.67" class="g">SQL</text><text x="29.058" y="1.67" class="g">·</text><text x="31.062" y="1.67" class="g">PyTorch</text><text x="39.078" y="1.67" class="g">·</text><text x="41.082" y="1.67" class="g">FastAPI</text><text x="49.098" y="1.67" class="g">·</text><text x="51.102" y="1.67" class="g">Docker</text></symbol><symbol id="8"><text y="1.67" class="h">github</text><text x="11.022" y="1.67" class="g">github.com/Salih04</text></symbol><symbol id="9"><text y="1.67" class="h">email</text><text x="11.022" y="1.67" class="g">salihcamci04@gmail.com</text></symbol><symbol id="a"><path fill="transparent" d="M0 0h80v24H0z"/></symbol></defs><path class="a" d="M0 0h80v52.104H0z"/><g style="animation-duration:4.270623s;animation-iteration-count:infinite;animation-name:k;animation-timing-function:steps(1,end)"><svg width="1680"><svg><use xlink:href="#a"/></svg><svg x="80"><use xlink:href="#a"/></svg><svg x="160"><use xlink:href="#a"/><text y="1.67" class="f">guest@basel</text><text x="11.022" y="1.67" class="g">:</text><text x="12.024" y="1.67" class="h">~</text><text x="13.026" y="1.67" class="g">$</text><text x="15.03" y="1.67" class="g">w</text></svg><svg x="240"><use xlink:href="#a"/><text y="1.67" class="f">guest@basel</text><text x="11.022" y="1.67" class="g">:</text><text x="12.024" y="1.67" class="h">~</text><text x="13.026" y="1.67" class="g">$</text><text x="15.03" y="1.67" class="g">wh</text></svg><svg x="320"><use xlink:href="#a"/><text y="1.67" class="f">guest@basel</text><text x="11.022" y="1.67" class="g">:</text><text x="12.024" y="1.67" class="h">~</text><text x="13.026" y="1.67" class="g">$</text><text x="15.03" y="1.67" class="g">who</text></svg><svg x="400"><use xlink:href="#a"/><text y="1.67" class="f">guest@basel</text><text x="11.022" y="1.67" class="g">:</text><text x="12.024" y="1.67" class="h">~</text><text x="13.026" y="1.67" class="g">$</text><text x="15.03" y="1.67" class="g">whoa</text></svg><svg x="480"><use xlink:href="#a"/><text y="1.67" class="f">guest@basel</text><text x="11.022" y="1.67" class="g">:</text><text x="12.024" y="1.67" class="h">~</text><text x="13.026" y="1.67" class="g">$</text><text x="15.03" y="1.67" class="g">whoam</text></svg><svg x="560"><use xlink:href="#a"/><use xlink:href="#1"/></svg><svg x="640"><use xlink:href="#a"/><use xlink:href="#1"/></svg><svg x="720"><use xlink:href="#a"/><use xlink:href="#1"/></svg><svg x="800"><use xlink:href="#a"/><use xlink:href="#1"/><use xlink:href="#2" y="4.342"/></svg><svg x="880"><use xlink:href="#a"/><use xlink:href="#1"/><use xlink:href="#2" y="4.342"/><use xlink:href="#3" y="6.513"/></svg><svg x="960"><use xlink:href="#a"/><use xlink:href="#1"/><use xlink:href="#2" y="4.342"/><use xlink:href="#3" y="6.513"/></svg><svg x="1040"><use xlink:href="#a"/><use xlink:href="#1"/><use xlink:href="#2" y="4.342"/><use xlink:href="#3" y="6.513"/><use xlink:href="#4" y="10.855"/></svg><svg x="1120"><use xlink:href="#a"/><use xlink:href="#1"/><use xlink:href="#2" y="4.342"/><use xlink:href="#3" y="6.513"/><use xlink:href="#4" y="10.855"/><use xlink:href="#5" y="13.026"/></svg><svg x="1200"><use xlink:href="#a"/><use xlink:href="#1"/><use xlink:href="#2" y="4.342"/><use xlink:href="#3" y="6.513"/><use xlink:href="#4" y="10.855"/><use xlink:href="#5" y="13.026"/><use xlink:href="#6" y="15.197"/></svg><svg x="1280"><use xlink:href="#a"/><use xlink:href="#1"/><use xlink:href="#2" y="4.342"/><use xlink:href="#3" y="6.513"/><use xlink:href="#4" y="10.855"/><use xlink:href="#5" y="13.026"/><use xlink:href="#6" y="15.197"/><use xlink:href="#7" y="17.368"/></svg><svg x="1360"><use xlink:href="#a"/><use xlink:href="#1"/><use xlink:href="#2" y="4.342"/><use xlink:href="#3" y="6.513"/><use xlink:href="#4" y="10.855"/><use xlink:href="#5" y="13.026"/><use xlink:href="#6" y="15.197"/><use xlink:href="#7" y="17.368"/><use xlink:href="#8" y="19.539"/></svg><svg x="1440"><use xlink:href="#a"/><use xlink:href="#1"/><use xlink:href="#2" y="4.342"/><use xlink:href="#3" y="6.513"/><use xlink:href="#4" y="10.855"/><use xlink:href="#5" y="13.026"/><use xlink:href="#6" y="15.197"/><use xlink:href="#7" y="17.368"/><use xlink:href="#8" y="19.539"/><use xlink:href="#9" y="21.71"/></svg><svg x="1520"><use xlink:href="#a"/><use xlink:href="#1"/><use xlink:href="#2" y="4.342"/><use xlink:href="#3" y="6.513"/><use xlink:href="#4" y="10.855"/><use xlink:href="#5" y="13.026"/><use xlink:href="#6" y="15.197"/><use xlink:href="#7" y="17.368"/><use xlink:href="#8" y="19.539"/><use xlink:href="#9" y="21.71"/></svg><svg x="1600"><use xlink:href="#a"/><use xlink:href="#1"/><use xlink:href="#2" y="4.342"/><use xlink:href="#3" y="6.513"/><use xlink:href="#4" y="10.855"/><use xlink:href="#5" y="13.026"/><use xlink:href="#6" y="15.197"/><use xlink:href="#7" y="17.368"/><use xlink:href="#8" y="19.539"/><use xlink:href="#9" y="21.71"/><text y="27.722" class="f">guest@basel</text><text x="11.022" y="27.722" class="g">:</text><text x="12.024" y="27.722" class="h">~</text><text x="13.026" y="27.722" class="g">$</text></svg></svg></g></g></svg></svg>